# xmcd
#
# Track frame offsets: 
#        150
#        5855
#        21303
#        30376
#        45371
#        88004
#        98421
#        112184
#        152400
#        190860
#        192656
#        207806
#        226575
#        245344
#
# Disc length: 3610 seconds
#
# Revision: 0
# Processed by: cddbd v1.5.2PL0 Copyright (c) Steve Scherf et al.
# Submitted via: ExactAudioCopy v1.3
#
DISCID=a60e180e
DTITLE=The Nighthawks - Nighthawks Live
DYEAR=1976
DGENRE=Blues Rock
TTITLE0=Intro Josh
TTITLE1=Jail House Rock
TTITLE2=Hound Dog
TTITLE3=Can't Get Next To You
TTITLE4=Shake And Fingerpop
TTITLE5=Intro Toronto's El Macombo Club
TTITLE6=Whammer Jammer
TTITLE7=Tripe Face Boogie
TTITLE8=Nineteen Years Old
TTITLE9=Shake Your Money Maker
TTITLE10=Ubangi Stomp
TTITLE11=Mystery Dance
TTITLE12=Boppin' The Blues
TTITLE13=Talked To My Baby
EXTD=
EXTT0=
EXTT1=
EXTT2=
EXTT3=
EXTT4=
EXTT5=
EXTT6=
EXTT7=
EXTT8=
EXTT9=
EXTT10=
EXTT11=
EXTT12=
EXTT13=
PLAYORDER=
